<?xml version="1.0" encoding="utf-8"?>
<!-- Generator: Adobe Illustrator 23.0.4, SVG Export Plug-In . SVG Version: 6.00 Build 0)  -->
<svg version="1.2" baseProfile="tiny" id="Calque_1"
	 xmlns="http://www.w3.org/2000/svg" xmlns:xlink="http://www.w3.org/1999/xlink" x="0px" y="0px" viewBox="0 0 880 487"
	 xml:space="preserve">
<g>
	<path fill="#FFFFFF" d="M594.2,466.8c-2.6,0-3.9-0.7-3.9-2.6V13.6c0-2,1.3-2.6,3.9-2.6h58.5c1.3,0,1.3-5.3,0-5.3H333.1
		c-1.3,0-1.3,5.3,0,5.3h59.2c2.6,0,3.9,0.7,3.9,2.6v320.3c0,82.2-41.4,138.8-136.8,138.8c-76.3,0-96.7-50.6-96.7-131.5V13.6
		c0-2,1.3-2.6,4.6-2.6h57.9c1.3,0,1.3-5.3,0-5.3H9.5c-1.3,0-1.3,5.3,0,5.3H68c2.6,0,3.9,0.7,3.9,2.6v327.6
		c0,98,70.4,142.1,170.4,142.1c111.2,0,159.8-58.5,159.8-149.3V13.6c0-2,1.3-2.6,3.3-2.6h90.1c2,0,3.3,0.7,3.3,2.6v450.6
		c0,2-1.3,2.6-3.3,2.6H437c-1.3,0-1.3,5.3,0,5.3h215.7c1.3,0,1.3-5.3,0-5.3L594.2,466.8L594.2,466.8z"/>
	<g>
		<circle fill="#FFFFFF" cx="776.1" cy="110.5" r="98.9"/>
		<g>
			<path d="M789.8,47.9c20.9,0,38.2,17.3,38.2,38.4c0,15.4-9.1,29.7-23.6,35.5l28.4,51.1h-28.9l-25-48.2H758V173h-25V48L789.8,47.9
				L789.8,47.9z M758,102.2h31.8c7.1,0,13.6-8.4,13.6-15.9c0-13-11.6-15.2-21.4-15.2h-24V102.2z"/>
		</g>
	</g>
</g>
</svg>
